<svg width="475" height="153" viewBox="0 0 475 153" fill="none" xmlns="http://www.w3.org/2000/svg">
<g filter="url(#filter0_d_0_8096)">
<path d="M7.776 28.7999L8.88 23.9999H24.432L25.536 28.7999H7.776ZM16.56 13.3439L11.28 25.6799L11.184 26.9279L6.528 37.4399H0.144L16.56 1.96794L32.976 37.4399H26.592L22.032 27.2159L21.888 25.8239L16.56 13.3439ZM30.75 15.3599H36.366L41.55 28.4639L47.694 13.6799L54.126 28.5599L59.31 15.3599H64.974L54.606 39.0239L47.694 24.0959L41.07 39.0239L30.75 15.3599ZM71.4979 30.5759C71.4979 31.3119 71.6739 31.9359 72.0259 32.4479C72.3779 32.9599 72.8579 33.3599 73.4659 33.6479C74.1059 33.9039 74.8259 34.0319 75.6259 34.0319C76.6499 34.0319 77.5939 33.8239 78.4579 33.4079C79.3219 32.9919 80.0099 32.3839 80.5219 31.5839C81.0339 30.7839 81.2899 29.8239 81.2899 28.7039L82.0579 31.5839C82.0579 32.9919 81.6419 34.1759 80.8099 35.1359C80.0099 36.0639 78.9859 36.7679 77.7379 37.2479C76.5219 37.6959 75.2739 37.9199 73.9939 37.9199C72.6179 37.9199 71.3379 37.6479 70.1539 37.1039C68.9699 36.5599 68.0259 35.7599 67.3219 34.7039C66.6179 33.6479 66.2659 32.3679 66.2659 30.8639C66.2659 29.4239 66.6019 28.1919 67.2739 27.1679C67.9779 26.1119 68.9699 25.2959 70.2499 24.7199C71.5299 24.1439 73.0819 23.8559 74.9059 23.8559C76.3779 23.8559 77.6419 24.0159 78.6979 24.3359C79.7859 24.6559 80.6819 25.0399 81.3859 25.4879C82.0899 25.9039 82.5859 26.2879 82.8739 26.6399V29.2799C81.8819 28.5759 80.8259 28.0639 79.7059 27.7439C78.5859 27.4239 77.4019 27.2639 76.1539 27.2639C75.0659 27.2639 74.1699 27.4079 73.4659 27.6959C72.7939 27.9519 72.2979 28.3199 71.9779 28.7999C71.6579 29.2799 71.4979 29.8719 71.4979 30.5759ZM69.8659 21.1199L67.7539 17.4719C68.7779 16.8639 70.0739 16.2719 71.6419 15.6959C73.2099 15.1199 75.0179 14.8319 77.0659 14.8319C78.8899 14.8319 80.4899 15.1039 81.8659 15.6479C83.2739 16.1919 84.3779 16.9759 85.1779 17.9999C85.9779 18.9919 86.3779 20.2239 86.3779 21.6959V37.4399H81.2899V22.7039C81.2899 22.0319 81.1779 21.4719 80.9539 21.0239C80.7299 20.5439 80.3939 20.1599 79.9459 19.8719C79.5299 19.5839 79.0339 19.3759 78.4579 19.2479C77.8819 19.1199 77.2579 19.0559 76.5859 19.0559C75.5299 19.0559 74.5539 19.1839 73.6579 19.4399C72.7619 19.6959 71.9779 19.9839 71.3059 20.3039C70.6659 20.6239 70.1859 20.8959 69.8659 21.1199ZM97.5574 15.3599V37.4399H92.4214V15.3599H97.5574ZM104.133 20.9279C103.653 20.5439 103.205 20.2559 102.789 20.0639C102.373 19.8399 101.845 19.7279 101.205 19.7279C100.341 19.7279 99.6374 19.9519 99.0934 20.3999C98.5814 20.8159 98.1974 21.4239 97.9414 22.2239C97.6854 23.0239 97.5574 23.9519 97.5574 25.0079L95.8294 23.9999C95.8294 22.2399 96.1494 20.6879 96.7894 19.3439C97.4614 17.9679 98.3094 16.8799 99.3334 16.0799C100.389 15.2799 101.477 14.8799 102.597 14.8799C103.397 14.8799 104.149 15.0079 104.853 15.2639C105.557 15.5199 106.165 15.9359 106.677 16.5119L104.133 20.9279ZM126.795 -6.00815e-05H132.027V37.4399H126.795V-6.00815e-05ZM108.507 26.3999C108.507 23.9679 109.003 21.9039 109.995 20.2079C110.987 18.4799 112.299 17.1679 113.931 16.2719C115.563 15.3439 117.339 14.8799 119.259 14.8799C120.635 14.8799 121.899 15.1519 123.051 15.6959C124.203 16.2079 125.195 16.9599 126.027 17.9519C126.859 18.9439 127.499 20.1599 127.947 21.5999C128.427 23.0079 128.667 24.6079 128.667 26.3999C128.667 28.1919 128.427 29.8079 127.947 31.2479C127.499 32.6559 126.859 33.8559 126.027 34.8479C125.195 35.8399 124.203 36.6079 123.051 37.1519C121.899 37.6639 120.635 37.9199 119.259 37.9199C117.339 37.9199 115.563 37.4719 113.931 36.5759C112.299 35.6479 110.987 34.3199 109.995 32.5919C109.003 30.8639 108.507 28.7999 108.507 26.3999ZM113.883 26.3999C113.883 27.8719 114.187 29.1359 114.795 30.1919C115.403 31.2159 116.203 32.0159 117.195 32.5919C118.219 33.1359 119.323 33.4079 120.507 33.4079C121.243 33.4079 121.979 33.2639 122.715 32.9759C123.483 32.6559 124.171 32.2079 124.779 31.6319C125.387 31.0239 125.867 30.2879 126.219 29.4239C126.603 28.5279 126.795 27.5199 126.795 26.3999C126.795 25.2799 126.603 24.2879 126.219 23.4239C125.867 22.5279 125.387 21.7919 124.779 21.2159C124.171 20.6079 123.483 20.1599 122.715 19.8719C121.979 19.5519 121.243 19.3919 120.507 19.3919C119.323 19.3919 118.219 19.6799 117.195 20.2559C116.203 20.7999 115.403 21.5999 114.795 22.6559C114.187 23.6799 113.883 24.9279 113.883 26.3999ZM135.334 28.3679V23.7119H145.174V28.3679H135.334ZM145.359 15.3599H150.975L156.159 28.4639L162.303 13.6799L168.735 28.5599L173.919 15.3599H179.583L169.215 39.0239L162.303 24.0959L155.679 39.0239L145.359 15.3599ZM182.651 6.57594C182.651 5.67994 182.971 4.92794 183.611 4.31994C184.251 3.71194 185.019 3.40794 185.915 3.40794C186.843 3.40794 187.611 3.71194 188.219 4.31994C188.859 4.92794 189.179 5.67994 189.179 6.57594C189.179 7.47194 188.859 8.22394 188.219 8.83194C187.611 9.43994 186.843 9.74394 185.915 9.74394C185.019 9.74394 184.251 9.43994 183.611 8.83194C182.971 8.22394 182.651 7.47194 182.651 6.57594ZM183.371 15.3599H188.459V37.4399H183.371V15.3599ZM209.801 23.9999C209.801 22.9119 209.657 22.0159 209.369 21.3119C209.081 20.5759 208.633 20.0159 208.025 19.6319C207.417 19.2479 206.649 19.0559 205.721 19.0559C204.761 19.0559 203.897 19.2639 203.129 19.6799C202.393 20.0959 201.817 20.6719 201.401 21.4079C200.985 22.1439 200.777 23.0079 200.777 23.9999V37.4399H195.593V15.3599H200.777V18.7679C201.481 17.4559 202.393 16.4799 203.513 15.8399C204.633 15.1999 205.945 14.8799 207.449 14.8799C209.113 14.8799 210.505 15.2319 211.625 15.9359C212.777 16.6079 213.641 17.5839 214.217 18.8639C214.825 20.1119 215.129 21.6319 215.129 23.4239V37.4399H209.801V23.9999ZM235.958 23.9999C235.958 22.9119 235.814 22.0159 235.526 21.3119C235.238 20.5759 234.79 20.0159 234.182 19.6319C233.574 19.2479 232.806 19.0559 231.878 19.0559C230.918 19.0559 230.054 19.2639 229.286 19.6799C228.55 20.0959 227.974 20.6719 227.558 21.4079C227.142 22.1439 226.934 23.0079 226.934 23.9999V37.4399H221.75V15.3599H226.934V18.7679C227.638 17.4559 228.55 16.4799 229.67 15.8399C230.79 15.1999 232.102 14.8799 233.606 14.8799C235.27 14.8799 236.662 15.2319 237.782 15.9359C238.934 16.6079 239.798 17.5839 240.374 18.8639C240.982 20.1119 241.286 21.6319 241.286 23.4239V37.4399H235.958V23.9999ZM247.714 6.57594C247.714 5.67994 248.034 4.92794 248.674 4.31994C249.314 3.71194 250.082 3.40794 250.978 3.40794C251.906 3.40794 252.674 3.71194 253.282 4.31994C253.922 4.92794 254.242 5.67994 254.242 6.57594C254.242 7.47194 253.922 8.22394 253.282 8.83194C252.674 9.43994 251.906 9.74394 250.978 9.74394C250.082 9.74394 249.314 9.43994 248.674 8.83194C248.034 8.22394 247.714 7.47194 247.714 6.57594ZM248.434 15.3599H253.522V37.4399H248.434V15.3599ZM274.864 23.9999C274.864 22.9119 274.72 22.0159 274.432 21.3119C274.144 20.5759 273.696 20.0159 273.088 19.6319C272.48 19.2479 271.712 19.0559 270.784 19.0559C269.824 19.0559 268.96 19.2639 268.192 19.6799C267.456 20.0959 266.88 20.6719 266.464 21.4079C266.048 22.1439 265.84 23.0079 265.84 23.9999V37.4399H260.656V15.3599H265.84V18.7679C266.544 17.4559 267.456 16.4799 268.576 15.8399C269.696 15.1999 271.008 14.8799 272.512 14.8799C274.176 14.8799 275.568 15.2319 276.688 15.9359C277.84 16.6079 278.704 17.5839 279.28 18.8639C279.888 20.1119 280.192 21.6319 280.192 23.4239V37.4399H274.864V23.9999ZM285.564 38.9279H290.748C290.78 39.9199 291.052 40.7999 291.564 41.5679C292.076 42.3679 292.78 42.9919 293.676 43.4399C294.604 43.9199 295.692 44.1599 296.94 44.1599C298.028 44.1599 299.068 43.9039 300.06 43.3919C301.052 42.8799 301.852 42.0959 302.46 41.0399C303.1 39.9839 303.42 38.6239 303.42 36.9599V15.3599H308.508V36.9599C308.508 39.6159 307.964 41.8079 306.876 43.5359C305.82 45.2959 304.428 46.5919 302.7 47.4239C300.972 48.2559 299.1 48.6719 297.084 48.6719C294.684 48.6719 292.636 48.2559 290.94 47.4239C289.244 46.5919 287.932 45.4399 287.004 43.9679C286.108 42.5279 285.628 40.8479 285.564 38.9279ZM285.132 26.3039C285.132 23.8719 285.628 21.8079 286.62 20.1119C287.612 18.4159 288.924 17.1199 290.556 16.2239C292.188 15.3279 293.964 14.8799 295.884 14.8799C297.26 14.8799 298.524 15.1359 299.676 15.6479C300.828 16.1599 301.82 16.9119 302.652 17.9039C303.484 18.8959 304.124 20.0959 304.572 21.5039C305.052 22.9119 305.292 24.5119 305.292 26.3039C305.292 28.0959 305.052 29.6959 304.572 31.1039C304.124 32.5119 303.484 33.7119 302.652 34.7039C301.82 35.6639 300.828 36.3999 299.676 36.9119C298.524 37.4239 297.26 37.6799 295.884 37.6799C293.964 37.6799 292.188 37.2319 290.556 36.3359C288.924 35.4399 287.612 34.1439 286.62 32.4479C285.628 30.7519 285.132 28.7039 285.132 26.3039ZM290.508 26.3039C290.508 27.7759 290.812 29.0239 291.42 30.0479C292.028 31.0719 292.828 31.8559 293.82 32.3999C294.844 32.9119 295.948 33.1679 297.132 33.1679C297.868 33.1679 298.604 33.0239 299.34 32.7359C300.108 32.4479 300.796 32.0159 301.404 31.4399C302.012 30.8639 302.492 30.1439 302.844 29.2799C303.228 28.4159 303.42 27.4239 303.42 26.3039C303.42 25.1839 303.228 24.1919 302.844 23.3279C302.492 22.4639 302.012 21.7439 301.404 21.1679C300.796 20.5919 300.108 20.1599 299.34 19.8719C298.604 19.5519 297.868 19.3919 297.132 19.3919C295.948 19.3919 294.844 19.6639 293.82 20.2079C292.828 20.7519 292.028 21.5359 291.42 22.5599C290.812 23.5839 290.508 24.8319 290.508 26.3039ZM332.784 26.3999C332.784 27.7759 333.088 29.0079 333.696 30.0959C334.304 31.1519 335.12 31.9839 336.144 32.5919C337.2 33.1679 338.368 33.4559 339.648 33.4559C340.704 33.4559 341.712 33.2959 342.672 32.9759C343.632 32.6559 344.48 32.2079 345.216 31.6319C345.952 31.0559 346.496 30.4159 346.848 29.7119V35.4239C346.08 36.2239 345.04 36.8479 343.728 37.2959C342.416 37.7119 340.976 37.9199 339.408 37.9199C337.136 37.9199 335.088 37.4399 333.264 36.4799C331.472 35.4879 330.048 34.1279 328.992 32.3999C327.968 30.6399 327.456 28.6399 327.456 26.3999C327.456 24.1279 327.968 22.1279 328.992 20.3999C330.048 18.6719 331.472 17.3279 333.264 16.3679C335.088 15.3759 337.136 14.8799 339.408 14.8799C340.976 14.8799 342.416 15.1039 343.728 15.5519C345.04 15.9999 346.08 16.5919 346.848 17.3279V23.0879C346.496 22.3519 345.936 21.7119 345.168 21.1679C344.432 20.5919 343.584 20.1439 342.624 19.8239C341.664 19.5039 340.672 19.3439 339.648 19.3439C338.368 19.3439 337.2 19.6479 336.144 20.2559C335.12 20.8639 334.304 21.6959 333.696 22.7519C333.088 23.8079 332.784 25.0239 332.784 26.3999ZM357.906 28.7999C357.906 29.8239 358.05 30.7199 358.338 31.4879C358.626 32.2239 359.074 32.7839 359.682 33.1679C360.29 33.5519 361.058 33.7439 361.986 33.7439C362.978 33.7439 363.842 33.5359 364.578 33.1199C365.314 32.7039 365.89 32.1279 366.306 31.3919C366.722 30.6559 366.93 29.7919 366.93 28.7999V15.3599H372.114V37.4399H366.93V34.0319C366.226 35.3119 365.314 36.2879 364.194 36.9599C363.106 37.5999 361.794 37.9199 360.258 37.9199C358.626 37.9199 357.234 37.5839 356.082 36.9119C354.93 36.2079 354.05 35.2159 353.442 33.9359C352.866 32.6559 352.578 31.1359 352.578 29.3759V15.3599H357.906V28.7999ZM379.742 30.1919C380.478 30.9919 381.198 31.6639 381.902 32.2079C382.606 32.7199 383.326 33.1199 384.062 33.4079C384.798 33.6959 385.534 33.8399 386.27 33.8399C387.198 33.8399 387.918 33.6319 388.43 33.2159C388.974 32.7679 389.246 32.1919 389.246 31.4879C389.246 30.8479 389.038 30.3039 388.622 29.8559C388.206 29.4079 387.63 29.0079 386.894 28.6559C386.158 28.3039 385.294 27.9519 384.302 27.5999C383.31 27.2159 382.318 26.7679 381.326 26.2559C380.366 25.7119 379.566 25.0239 378.926 24.1919C378.318 23.3279 378.014 22.2239 378.014 20.8799C378.014 19.5359 378.366 18.4319 379.07 17.5679C379.774 16.6719 380.702 15.9999 381.854 15.5519C383.006 15.1039 384.254 14.8799 385.598 14.8799C386.814 14.8799 387.95 15.0559 389.006 15.4079C390.062 15.7279 391.022 16.1919 391.886 16.7999C392.782 17.3759 393.534 18.0319 394.142 18.7679L391.262 21.8399C390.558 21.0079 389.678 20.3199 388.622 19.7759C387.598 19.1999 386.542 18.9119 385.454 18.9119C384.718 18.9119 384.11 19.0719 383.63 19.3919C383.15 19.7119 382.91 20.1759 382.91 20.7839C382.91 21.3279 383.118 21.8079 383.534 22.2239C383.95 22.6079 384.526 22.9599 385.262 23.2799C385.998 23.5999 386.814 23.9359 387.71 24.2879C388.926 24.7679 390.046 25.2959 391.07 25.8719C392.094 26.4159 392.91 27.1039 393.518 27.9359C394.158 28.7679 394.478 29.8559 394.478 31.1999C394.478 32.5759 394.158 33.7919 393.518 34.8479C392.878 35.8719 391.966 36.6719 390.782 37.2479C389.598 37.8239 388.206 38.1119 386.606 38.1119C385.102 38.1119 383.71 37.8879 382.43 37.4399C381.182 36.9599 380.078 36.3519 379.118 35.6159C378.158 34.8799 377.358 34.0799 376.718 33.2159L379.742 30.1919ZM396.006 15.3599H408.534V19.9199H396.006V15.3599ZM399.702 7.67994H404.838V37.4399H399.702V7.67994ZM410.429 26.3999C410.429 24.1279 410.941 22.1279 411.965 20.3999C413.021 18.6719 414.445 17.3279 416.237 16.3679C418.061 15.3759 420.093 14.8799 422.333 14.8799C424.605 14.8799 426.637 15.3759 428.429 16.3679C430.221 17.3279 431.629 18.6719 432.653 20.3999C433.709 22.1279 434.237 24.1279 434.237 26.3999C434.237 28.6399 433.709 30.6399 432.653 32.3999C431.629 34.1279 430.221 35.4879 428.429 36.4799C426.637 37.4399 424.605 37.9199 422.333 37.9199C420.093 37.9199 418.061 37.4399 416.237 36.4799C414.445 35.4879 413.021 34.1279 411.965 32.3999C410.941 30.6399 410.429 28.6399 410.429 26.3999ZM415.757 26.3999C415.757 27.7759 416.045 28.9919 416.621 30.0479C417.197 31.0719 417.981 31.8879 418.973 32.4959C419.965 33.0719 421.085 33.3599 422.333 33.3599C423.581 33.3599 424.701 33.0719 425.693 32.4959C426.685 31.8879 427.469 31.0719 428.045 30.0479C428.621 28.9919 428.909 27.7759 428.909 26.3999C428.909 25.0239 428.621 23.8239 428.045 22.7999C427.469 21.7439 426.685 20.9279 425.693 20.3519C424.701 19.7439 423.581 19.4399 422.333 19.4399C421.085 19.4399 419.965 19.7439 418.973 20.3519C417.981 20.9279 417.197 21.7439 416.621 22.7999C416.045 23.8239 415.757 25.0239 415.757 26.3999ZM470.74 23.4239V37.4399H465.556V23.9999C465.556 22.8799 465.428 21.9679 465.172 21.2639C464.916 20.5279 464.516 19.9839 463.972 19.6319C463.428 19.2479 462.74 19.0559 461.908 19.0559C461.012 19.0559 460.228 19.2479 459.556 19.6319C458.916 20.0159 458.404 20.5759 458.02 21.3119C457.668 22.0479 457.492 22.9439 457.492 23.9999V37.4399H452.26V23.9999C452.26 22.8799 452.132 21.9679 451.876 21.2639C451.62 20.5279 451.22 19.9839 450.676 19.6319C450.132 19.2479 449.444 19.0559 448.612 19.0559C447.716 19.0559 446.932 19.2479 446.26 19.6319C445.62 20.0159 445.124 20.5759 444.772 21.3119C444.42 22.0479 444.244 22.9439 444.244 23.9999V37.4399H439.156V15.3599H444.244V18.5759C444.692 17.7439 445.204 17.0559 445.78 16.5119C446.388 15.9679 447.076 15.5679 447.844 15.3119C448.644 15.0239 449.508 14.8799 450.436 14.8799C451.524 14.8799 452.484 15.0399 453.316 15.3599C454.148 15.6479 454.852 16.0799 455.428 16.6559C456.036 17.2319 456.5 17.9519 456.82 18.8159C457.588 17.5359 458.564 16.5599 459.748 15.8879C460.932 15.2159 462.26 14.8799 463.732 14.8799C465.332 14.8799 466.644 15.2159 467.668 15.8879C468.692 16.5599 469.46 17.5359 469.972 18.8159C470.484 20.0639 470.74 21.5999 470.74 23.4239ZM19.92 47.9999H25.152V85.4399H19.92V47.9999ZM1.632 74.3999C1.632 71.9679 2.128 69.9039 3.12 68.2079C4.112 66.4799 5.424 65.1679 7.056 64.2719C8.688 63.3439 10.464 62.8799 12.384 62.8799C13.76 62.8799 15.024 63.1519 16.176 63.6959C17.328 64.2079 18.32 64.9599 19.152 65.9519C19.984 66.9439 20.624 68.1599 21.072 69.5999C21.552 71.0079 21.792 72.6079 21.792 74.3999C21.792 76.1919 21.552 77.8079 21.072 79.2479C20.624 80.6559 19.984 81.8559 19.152 82.8479C18.32 83.8399 17.328 84.6079 16.176 85.1519C15.024 85.6639 13.76 85.9199 12.384 85.9199C10.464 85.9199 8.688 85.4719 7.056 84.5759C5.424 83.6479 4.112 82.3199 3.12 80.5919C2.128 78.8639 1.632 76.7999 1.632 74.3999ZM7.008 74.3999C7.008 75.8719 7.312 77.1359 7.92 78.1919C8.528 79.2159 9.328 80.0159 10.32 80.5919C11.344 81.1359 12.448 81.4079 13.632 81.4079C14.368 81.4079 15.104 81.2639 15.84 80.9759C16.608 80.6559 17.296 80.2079 17.904 79.6319C18.512 79.0239 18.992 78.2879 19.344 77.4239C19.728 76.5279 19.92 75.5199 19.92 74.3999C19.92 73.2799 19.728 72.2879 19.344 71.4239C18.992 70.5279 18.512 69.7919 17.904 69.2159C17.296 68.6079 16.608 68.1599 15.84 67.8719C15.104 67.5519 14.368 67.3919 13.632 67.3919C12.448 67.3919 11.344 67.6799 10.32 68.2559C9.328 68.7999 8.528 69.5999 7.92 70.6559C7.312 71.6799 7.008 72.9279 7.008 74.3999ZM41.1308 85.9199C38.8588 85.9199 36.8748 85.4399 35.1788 84.4799C33.4828 83.5199 32.1708 82.1759 31.2428 80.4479C30.3148 78.7199 29.8508 76.7039 29.8508 74.3999C29.8508 72.6719 30.1228 71.1039 30.6668 69.6959C31.2108 68.2559 31.9788 67.0399 32.9708 66.0479C33.9948 65.0239 35.2108 64.2399 36.6188 63.6959C38.0268 63.1519 39.6108 62.8799 41.3708 62.8799C43.7068 62.8799 45.6908 63.3279 47.3228 64.2239C48.9548 65.1199 50.2028 66.4159 51.0668 68.1119C51.9628 69.7759 52.4108 71.7919 52.4108 74.1599C52.4108 74.4479 52.3948 74.7359 52.3628 75.0239C52.3628 75.2799 52.3628 75.4719 52.3628 75.5999H32.9228V71.9999H47.8988L46.2668 74.2079C46.3948 74.0159 46.5068 73.7599 46.6028 73.4399C46.7308 73.1199 46.7948 72.8479 46.7948 72.6239C46.7948 71.4399 46.5548 70.4159 46.0748 69.5519C45.6268 68.6879 44.9868 68.0159 44.1548 67.5359C43.3548 67.0559 42.4108 66.8159 41.3228 66.8159C40.3308 66.8159 39.4508 66.9759 38.6828 67.2959C37.9468 67.6159 37.3068 68.0959 36.7628 68.7359C36.2508 69.3439 35.8508 70.1119 35.5628 71.0399C35.2748 71.9359 35.1308 72.9919 35.1308 74.2079C35.1308 75.7759 35.3708 77.1199 35.8508 78.2399C36.3308 79.3279 37.0348 80.1759 37.9628 80.7839C38.8908 81.3599 40.0268 81.6479 41.3708 81.6479C42.7788 81.6479 44.0108 81.3599 45.0668 80.7839C46.1228 80.2079 47.0028 79.3279 47.7068 78.1439L52.2188 79.9199C51.0668 81.9039 49.5628 83.4079 47.7068 84.4319C45.8828 85.4239 43.6908 85.9199 41.1308 85.9199ZM58.3669 78.1919C59.1029 78.9919 59.8229 79.6639 60.5269 80.2079C61.2309 80.7199 61.9509 81.1199 62.6869 81.4079C63.4229 81.6959 64.1589 81.8399 64.8949 81.8399C65.8229 81.8399 66.5429 81.6319 67.0549 81.2159C67.5989 80.7679 67.8709 80.1919 67.8709 79.4879C67.8709 78.8479 67.6629 78.3039 67.2469 77.8559C66.8309 77.4079 66.2549 77.0079 65.5189 76.6559C64.7829 76.3039 63.9189 75.9519 62.9269 75.5999C61.9349 75.2159 60.9429 74.7679 59.9509 74.2559C58.9909 73.7119 58.1909 73.0239 57.5509 72.1919C56.9429 71.3279 56.6389 70.2239 56.6389 68.8799C56.6389 67.5359 56.9909 66.4319 57.6949 65.5679C58.3989 64.6719 59.3269 63.9999 60.4789 63.5519C61.6309 63.1039 62.8789 62.8799 64.2229 62.8799C65.4389 62.8799 66.5749 63.0559 67.6309 63.4079C68.6869 63.7279 69.6469 64.1919 70.5109 64.7999C71.4069 65.3759 72.1589 66.0319 72.7669 66.7679L69.8869 69.8399C69.1829 69.0079 68.3029 68.3199 67.2469 67.7759C66.2229 67.1999 65.1669 66.9119 64.0789 66.9119C63.3429 66.9119 62.7349 67.0719 62.2549 67.3919C61.7749 67.7119 61.5349 68.1759 61.5349 68.7839C61.5349 69.3279 61.7429 69.8079 62.1589 70.2239C62.5749 70.6079 63.1509 70.9599 63.8869 71.2799C64.6229 71.5999 65.4389 71.9359 66.3349 72.2879C67.5509 72.7679 68.6709 73.2959 69.6949 73.8719C70.7189 74.4159 71.5349 75.1039 72.1429 75.9359C72.7829 76.7679 73.1029 77.8559 73.1029 79.1999C73.1029 80.5759 72.7829 81.7919 72.1429 82.8479C71.5029 83.8719 70.5909 84.6719 69.4069 85.2479C68.2229 85.8239 66.8309 86.1119 65.2309 86.1119C63.7269 86.1119 62.3349 85.8879 61.0549 85.4399C59.8069 84.9599 58.7029 84.3519 57.7429 83.6159C56.7829 82.8799 55.9829 82.0799 55.3429 81.2159L58.3669 78.1919ZM77.5106 54.5759C77.5106 53.6799 77.8306 52.9279 78.4706 52.3199C79.1106 51.7119 79.8786 51.4079 80.7746 51.4079C81.7026 51.4079 82.4706 51.7119 83.0786 52.3199C83.7186 52.9279 84.0386 53.6799 84.0386 54.5759C84.0386 55.4719 83.7186 56.2239 83.0786 56.8319C82.4706 57.4399 81.7026 57.7439 80.7746 57.7439C79.8786 57.7439 79.1106 57.4399 78.4706 56.8319C77.8306 56.2239 77.5106 55.4719 77.5106 54.5759ZM78.2306 63.3599H83.3186V85.4399H78.2306V63.3599ZM89.2046 86.9279H94.3886C94.4206 87.9199 94.6926 88.7999 95.2046 89.5679C95.7166 90.3679 96.4206 90.9919 97.3166 91.4399C98.2446 91.9199 99.3326 92.1599 100.581 92.1599C101.669 92.1599 102.709 91.9039 103.701 91.3919C104.693 90.8799 105.493 90.0959 106.101 89.0399C106.741 87.9839 107.061 86.6239 107.061 84.9599V63.3599H112.149V84.9599C112.149 87.6159 111.605 89.8079 110.517 91.5359C109.461 93.2959 108.069 94.5919 106.341 95.4239C104.613 96.2559 102.741 96.6719 100.725 96.6719C98.3246 96.6719 96.2766 96.2559 94.5806 95.4239C92.8846 94.5919 91.5726 93.4399 90.6446 91.9679C89.7486 90.5279 89.2686 88.8479 89.2046 86.9279ZM88.7726 74.3039C88.7726 71.8719 89.2686 69.8079 90.2606 68.1119C91.2526 66.4159 92.5646 65.1199 94.1966 64.2239C95.8286 63.3279 97.6046 62.8799 99.5246 62.8799C100.901 62.8799 102.165 63.1359 103.317 63.6479C104.469 64.1599 105.461 64.9119 106.293 65.9039C107.125 66.8959 107.765 68.0959 108.213 69.5039C108.693 70.9119 108.933 72.5119 108.933 74.3039C108.933 76.0959 108.693 77.6959 108.213 79.1039C107.765 80.5119 107.125 81.7119 106.293 82.7039C105.461 83.6639 104.469 84.3999 103.317 84.9119C102.165 85.4239 100.901 85.6799 99.5246 85.6799C97.6046 85.6799 95.8286 85.2319 94.1966 84.3359C92.5646 83.4399 91.2526 82.1439 90.2606 80.4479C89.2686 78.7519 88.7726 76.7039 88.7726 74.3039ZM94.1486 74.3039C94.1486 75.7759 94.4526 77.0239 95.0606 78.0479C95.6686 79.0719 96.4686 79.8559 97.4606 80.3999C98.4846 80.9119 99.5886 81.1679 100.773 81.1679C101.509 81.1679 102.245 81.0239 102.981 80.7359C103.749 80.4479 104.437 80.0159 105.045 79.4399C105.653 78.8639 106.133 78.1439 106.485 77.2799C106.869 76.4159 107.061 75.4239 107.061 74.3039C107.061 73.1839 106.869 72.1919 106.485 71.3279C106.133 70.4639 105.653 69.7439 105.045 69.1679C104.437 68.5919 103.749 68.1599 102.981 67.8719C102.245 67.5519 101.509 67.3919 100.773 67.3919C99.5886 67.3919 98.4846 67.6639 97.4606 68.2079C96.4686 68.7519 95.6686 69.5359 95.0606 70.5599C94.4526 71.5839 94.1486 72.8319 94.1486 74.3039ZM132.786 71.9999C132.786 70.9119 132.642 70.0159 132.354 69.3119C132.066 68.5759 131.618 68.0159 131.01 67.6319C130.402 67.2479 129.634 67.0559 128.706 67.0559C127.746 67.0559 126.882 67.2639 126.114 67.6799C125.378 68.0959 124.802 68.6719 124.386 69.4079C123.97 70.1439 123.762 71.0079 123.762 71.9999V85.4399H118.578V63.3599H123.762V66.7679C124.466 65.4559 125.378 64.4799 126.498 63.8399C127.618 63.1999 128.93 62.8799 130.434 62.8799C132.098 62.8799 133.49 63.2319 134.61 63.9359C135.762 64.6079 136.626 65.5839 137.202 66.8639C137.81 68.1119 138.114 69.6319 138.114 71.4239V85.4399H132.786V71.9999ZM145.742 78.1919C146.478 78.9919 147.198 79.6639 147.902 80.2079C148.606 80.7199 149.326 81.1199 150.062 81.4079C150.798 81.6959 151.534 81.8399 152.27 81.8399C153.198 81.8399 153.918 81.6319 154.43 81.2159C154.974 80.7679 155.246 80.1919 155.246 79.4879C155.246 78.8479 155.038 78.3039 154.622 77.8559C154.206 77.4079 153.63 77.0079 152.894 76.6559C152.158 76.3039 151.294 75.9519 150.302 75.5999C149.31 75.2159 148.318 74.7679 147.326 74.2559C146.366 73.7119 145.566 73.0239 144.926 72.1919C144.318 71.3279 144.014 70.2239 144.014 68.8799C144.014 67.5359 144.366 66.4319 145.07 65.5679C145.774 64.6719 146.702 63.9999 147.854 63.5519C149.006 63.1039 150.254 62.8799 151.598 62.8799C152.814 62.8799 153.95 63.0559 155.006 63.4079C156.062 63.7279 157.022 64.1919 157.886 64.7999C158.782 65.3759 159.534 66.0319 160.142 66.7679L157.262 69.8399C156.558 69.0079 155.678 68.3199 154.622 67.7759C153.598 67.1999 152.542 66.9119 151.454 66.9119C150.718 66.9119 150.11 67.0719 149.63 67.3919C149.15 67.7119 148.91 68.1759 148.91 68.7839C148.91 69.3279 149.118 69.8079 149.534 70.2239C149.95 70.6079 150.526 70.9599 151.262 71.2799C151.998 71.5999 152.814 71.9359 153.71 72.2879C154.926 72.7679 156.046 73.2959 157.07 73.8719C158.094 74.4159 158.91 75.1039 159.518 75.9359C160.158 76.7679 160.478 77.8559 160.478 79.1999C160.478 80.5759 160.158 81.7919 159.518 82.8479C158.878 83.8719 157.966 84.6719 156.782 85.2479C155.598 85.8239 154.206 86.1119 152.606 86.1119C151.102 86.1119 149.71 85.8879 148.43 85.4399C147.182 84.9599 146.078 84.3519 145.118 83.6159C144.158 82.8799 143.358 82.0799 142.718 81.2159L145.742 78.1919ZM182.732 78.5759C182.732 79.3119 182.908 79.9359 183.26 80.4479C183.612 80.9599 184.092 81.3599 184.7 81.6479C185.34 81.9039 186.06 82.0319 186.86 82.0319C187.884 82.0319 188.828 81.8239 189.692 81.4079C190.556 80.9919 191.244 80.3839 191.756 79.5839C192.268 78.7839 192.524 77.8239 192.524 76.7039L193.292 79.5839C193.292 80.9919 192.876 82.1759 192.044 83.1359C191.244 84.0639 190.22 84.7679 188.972 85.2479C187.756 85.6959 186.508 85.9199 185.228 85.9199C183.852 85.9199 182.572 85.6479 181.388 85.1039C180.204 84.5599 179.26 83.7599 178.556 82.7039C177.852 81.6479 177.5 80.3679 177.5 78.8639C177.5 77.4239 177.836 76.1919 178.508 75.1679C179.212 74.1119 180.204 73.2959 181.484 72.7199C182.764 72.1439 184.316 71.8559 186.14 71.8559C187.612 71.8559 188.876 72.0159 189.932 72.3359C191.02 72.6559 191.916 73.0399 192.62 73.4879C193.324 73.9039 193.82 74.2879 194.108 74.6399V77.2799C193.116 76.5759 192.06 76.0639 190.94 75.7439C189.82 75.4239 188.636 75.2639 187.388 75.2639C186.3 75.2639 185.404 75.4079 184.7 75.6959C184.028 75.9519 183.532 76.3199 183.212 76.7999C182.892 77.2799 182.732 77.8719 182.732 78.5759ZM181.1 69.1199L178.988 65.4719C180.012 64.8639 181.308 64.2719 182.876 63.6959C184.444 63.1199 186.252 62.8319 188.3 62.8319C190.124 62.8319 191.724 63.1039 193.1 63.6479C194.508 64.1919 195.612 64.9759 196.412 65.9999C197.212 66.9919 197.612 68.2239 197.612 69.6959V85.4399H192.524V70.7039C192.524 70.0319 192.412 69.4719 192.188 69.0239C191.964 68.5439 191.628 68.1599 191.18 67.8719C190.764 67.5839 190.268 67.3759 189.692 67.2479C189.116 67.1199 188.492 67.0559 187.82 67.0559C186.764 67.0559 185.788 67.1839 184.892 67.4399C183.996 67.6959 183.212 67.9839 182.54 68.3039C181.9 68.6239 181.42 68.8959 181.1 69.1199ZM217.864 71.9999C217.864 70.9119 217.72 70.0159 217.432 69.3119C217.144 68.5759 216.696 68.0159 216.088 67.6319C215.48 67.2479 214.712 67.0559 213.784 67.0559C212.824 67.0559 211.96 67.2639 211.192 67.6799C210.456 68.0959 209.88 68.6719 209.464 69.4079C209.048 70.1439 208.84 71.0079 208.84 71.9999V85.4399H203.656V63.3599H208.84V66.7679C209.544 65.4559 210.456 64.4799 211.576 63.8399C212.696 63.1999 214.008 62.8799 215.512 62.8799C217.176 62.8799 218.568 63.2319 219.688 63.9359C220.84 64.6079 221.704 65.5839 222.28 66.8639C222.888 68.1119 223.192 69.6319 223.192 71.4239V85.4399H217.864V71.9999ZM246.42 47.9999H251.652V85.4399H246.42V47.9999ZM228.132 74.3999C228.132 71.9679 228.628 69.9039 229.62 68.2079C230.612 66.4799 231.924 65.1679 233.556 64.2719C235.188 63.3439 236.964 62.8799 238.884 62.8799C240.26 62.8799 241.524 63.1519 242.676 63.6959C243.828 64.2079 244.82 64.9599 245.652 65.9519C246.484 66.9439 247.124 68.1599 247.572 69.5999C248.052 71.0079 248.292 72.6079 248.292 74.3999C248.292 76.1919 248.052 77.8079 247.572 79.2479C247.124 80.6559 246.484 81.8559 245.652 82.8479C244.82 83.8399 243.828 84.6079 242.676 85.1519C241.524 85.6639 240.26 85.9199 238.884 85.9199C236.964 85.9199 235.188 85.4719 233.556 84.5759C231.924 83.6479 230.612 82.3199 229.62 80.5919C228.628 78.8639 228.132 76.7999 228.132 74.3999ZM233.508 74.3999C233.508 75.8719 233.812 77.1359 234.42 78.1919C235.028 79.2159 235.828 80.0159 236.82 80.5919C237.844 81.1359 238.948 81.4079 240.132 81.4079C240.868 81.4079 241.604 81.2639 242.34 80.9759C243.108 80.6559 243.796 80.2079 244.404 79.6319C245.012 79.0239 245.492 78.2879 245.844 77.4239C246.228 76.5279 246.42 75.5199 246.42 74.3999C246.42 73.2799 246.228 72.2879 245.844 71.4239C245.492 70.5279 245.012 69.7919 244.404 69.2159C243.796 68.6079 243.108 68.1599 242.34 67.8719C241.604 67.5519 240.868 67.3919 240.132 67.3919C238.948 67.3919 237.844 67.6799 236.82 68.2559C235.828 68.7999 235.028 69.5999 234.42 70.6559C233.812 71.6799 233.508 72.9279 233.508 74.3999ZM289.029 47.9999H294.261V85.4399H289.029V47.9999ZM270.741 74.3999C270.741 71.9679 271.237 69.9039 272.229 68.2079C273.221 66.4799 274.533 65.1679 276.165 64.2719C277.797 63.3439 279.573 62.8799 281.493 62.8799C282.869 62.8799 284.133 63.1519 285.285 63.6959C286.437 64.2079 287.429 64.9599 288.261 65.9519C289.093 66.9439 289.733 68.1599 290.181 69.5999C290.661 71.0079 290.901 72.6079 290.901 74.3999C290.901 76.1919 290.661 77.8079 290.181 79.2479C289.733 80.6559 289.093 81.8559 288.261 82.8479C287.429 83.8399 286.437 84.6079 285.285 85.1519C284.133 85.6639 282.869 85.9199 281.493 85.9199C279.573 85.9199 277.797 85.4719 276.165 84.5759C274.533 83.6479 273.221 82.3199 272.229 80.5919C271.237 78.8639 270.741 76.7999 270.741 74.3999ZM276.117 74.3999C276.117 75.8719 276.421 77.1359 277.029 78.1919C277.637 79.2159 278.437 80.0159 279.429 80.5919C280.453 81.1359 281.557 81.4079 282.741 81.4079C283.477 81.4079 284.213 81.2639 284.949 80.9759C285.717 80.6559 286.405 80.2079 287.013 79.6319C287.621 79.0239 288.101 78.2879 288.453 77.4239C288.837 76.5279 289.029 75.5199 289.029 74.3999C289.029 73.2799 288.837 72.2879 288.453 71.4239C288.101 70.5279 287.621 69.7919 287.013 69.2159C286.405 68.6079 285.717 68.1599 284.949 67.8719C284.213 67.5519 283.477 67.3919 282.741 67.3919C281.557 67.3919 280.453 67.6799 279.429 68.2559C278.437 68.7999 277.637 69.5999 277.029 70.6559C276.421 71.6799 276.117 72.9279 276.117 74.3999ZM300.448 54.5759C300.448 53.6799 300.768 52.9279 301.408 52.3199C302.048 51.7119 302.816 51.4079 303.712 51.4079C304.64 51.4079 305.408 51.7119 306.016 52.3199C306.656 52.9279 306.976 53.6799 306.976 54.5759C306.976 55.4719 306.656 56.2239 306.016 56.8319C305.408 57.4399 304.64 57.7439 303.712 57.7439C302.816 57.7439 302.048 57.4399 301.408 56.8319C300.768 56.2239 300.448 55.4719 300.448 54.5759ZM301.168 63.3599H306.256V85.4399H301.168V63.3599ZM312.142 86.9279H317.326C317.358 87.9199 317.63 88.7999 318.142 89.5679C318.654 90.3679 319.358 90.9919 320.254 91.4399C321.182 91.9199 322.27 92.1599 323.518 92.1599C324.606 92.1599 325.646 91.9039 326.638 91.3919C327.63 90.8799 328.43 90.0959 329.038 89.0399C329.678 87.9839 329.998 86.6239 329.998 84.9599V63.3599H335.086V84.9599C335.086 87.6159 334.542 89.8079 333.454 91.5359C332.398 93.2959 331.006 94.5919 329.278 95.4239C327.55 96.2559 325.678 96.6719 323.662 96.6719C321.262 96.6719 319.214 96.2559 317.518 95.4239C315.822 94.5919 314.51 93.4399 313.582 91.9679C312.686 90.5279 312.206 88.8479 312.142 86.9279ZM311.71 74.3039C311.71 71.8719 312.206 69.8079 313.198 68.1119C314.19 66.4159 315.502 65.1199 317.134 64.2239C318.766 63.3279 320.542 62.8799 322.462 62.8799C323.838 62.8799 325.102 63.1359 326.254 63.6479C327.406 64.1599 328.398 64.9119 329.23 65.9039C330.062 66.8959 330.702 68.0959 331.15 69.5039C331.63 70.9119 331.87 72.5119 331.87 74.3039C331.87 76.0959 331.63 77.6959 331.15 79.1039C330.702 80.5119 330.062 81.7119 329.23 82.7039C328.398 83.6639 327.406 84.3999 326.254 84.9119C325.102 85.4239 323.838 85.6799 322.462 85.6799C320.542 85.6799 318.766 85.2319 317.134 84.3359C315.502 83.4399 314.19 82.1439 313.198 80.4479C312.206 78.7519 311.71 76.7039 311.71 74.3039ZM317.086 74.3039C317.086 75.7759 317.39 77.0239 317.998 78.0479C318.606 79.0719 319.406 79.8559 320.398 80.3999C321.422 80.9119 322.526 81.1679 323.71 81.1679C324.446 81.1679 325.182 81.0239 325.918 80.7359C326.686 80.4479 327.374 80.0159 327.982 79.4399C328.59 78.8639 329.07 78.1439 329.422 77.2799C329.806 76.4159 329.998 75.4239 329.998 74.3039C329.998 73.1839 329.806 72.1919 329.422 71.3279C329.07 70.4639 328.59 69.7439 327.982 69.1679C327.374 68.5919 326.686 68.1599 325.918 67.8719C325.182 67.5519 324.446 67.3919 323.71 67.3919C322.526 67.3919 321.422 67.6639 320.398 68.2079C319.406 68.7519 318.606 69.5359 317.998 70.5599C317.39 71.5839 317.086 72.8319 317.086 74.3039ZM341.323 54.5759C341.323 53.6799 341.643 52.9279 342.283 52.3199C342.923 51.7119 343.691 51.4079 344.587 51.4079C345.515 51.4079 346.283 51.7119 346.891 52.3199C347.531 52.9279 347.851 53.6799 347.851 54.5759C347.851 55.4719 347.531 56.2239 346.891 56.8319C346.283 57.4399 345.515 57.7439 344.587 57.7439C343.691 57.7439 342.923 57.4399 342.283 56.8319C341.643 56.2239 341.323 55.4719 341.323 54.5759ZM342.043 63.3599H347.131V85.4399H342.043V63.3599ZM351.193 63.3599H363.721V67.9199H351.193V63.3599ZM354.889 55.6799H360.025V85.4399H354.889V55.6799ZM370.56 78.5759C370.56 79.3119 370.736 79.9359 371.088 80.4479C371.44 80.9599 371.92 81.3599 372.528 81.6479C373.168 81.9039 373.888 82.0319 374.688 82.0319C375.712 82.0319 376.656 81.8239 377.52 81.4079C378.384 80.9919 379.072 80.3839 379.584 79.5839C380.096 78.7839 380.352 77.8239 380.352 76.7039L381.12 79.5839C381.12 80.9919 380.704 82.1759 379.872 83.1359C379.072 84.0639 378.048 84.7679 376.8 85.2479C375.584 85.6959 374.336 85.9199 373.056 85.9199C371.68 85.9199 370.4 85.6479 369.216 85.1039C368.032 84.5599 367.088 83.7599 366.384 82.7039C365.68 81.6479 365.328 80.3679 365.328 78.8639C365.328 77.4239 365.664 76.1919 366.336 75.1679C367.04 74.1119 368.032 73.2959 369.312 72.7199C370.592 72.1439 372.144 71.8559 373.968 71.8559C375.44 71.8559 376.704 72.0159 377.76 72.3359C378.848 72.6559 379.744 73.0399 380.448 73.4879C381.152 73.9039 381.648 74.2879 381.936 74.6399V77.2799C380.944 76.5759 379.888 76.0639 378.768 75.7439C377.648 75.4239 376.464 75.2639 375.216 75.2639C374.128 75.2639 373.232 75.4079 372.528 75.6959C371.856 75.9519 371.36 76.3199 371.04 76.7999C370.72 77.2799 370.56 77.8719 370.56 78.5759ZM368.928 69.1199L366.816 65.4719C367.84 64.8639 369.136 64.2719 370.704 63.6959C372.272 63.1199 374.08 62.8319 376.128 62.8319C377.952 62.8319 379.552 63.1039 380.928 63.6479C382.336 64.1919 383.44 64.9759 384.24 65.9999C385.04 66.9919 385.44 68.2239 385.44 69.6959V85.4399H380.352V70.7039C380.352 70.0319 380.24 69.4719 380.016 69.0239C379.792 68.5439 379.456 68.1599 379.008 67.8719C378.592 67.5839 378.096 67.3759 377.52 67.2479C376.944 67.1199 376.32 67.0559 375.648 67.0559C374.592 67.0559 373.616 67.1839 372.72 67.4399C371.824 67.6959 371.04 67.9839 370.368 68.3039C369.728 68.6239 369.248 68.8959 368.928 69.1199ZM391.484 47.9999H396.668V85.4399H391.484V47.9999ZM8.352 95.9999V133.44H3.12V95.9999H8.352ZM26.64 122.4C26.64 124.8 26.144 126.864 25.152 128.592C24.16 130.32 22.848 131.648 21.216 132.576C19.584 133.472 17.808 133.92 15.888 133.92C14.512 133.92 13.248 133.664 12.096 133.152C10.944 132.608 9.952 131.84 9.12 130.848C8.288 129.856 7.632 128.656 7.152 127.248C6.704 125.808 6.48 124.192 6.48 122.4C6.48 120.608 6.704 119.008 7.152 117.6C7.632 116.16 8.288 114.944 9.12 113.952C9.952 112.96 10.944 112.208 12.096 111.696C13.248 111.152 14.512 110.88 15.888 110.88C17.808 110.88 19.584 111.344 21.216 112.272C22.848 113.168 24.16 114.48 25.152 116.208C26.144 117.904 26.64 119.968 26.64 122.4ZM21.264 122.4C21.264 120.928 20.96 119.68 20.352 118.656C19.744 117.6 18.944 116.8 17.952 116.256C16.96 115.68 15.856 115.392 14.64 115.392C13.904 115.392 13.152 115.552 12.384 115.872C11.648 116.16 10.976 116.608 10.368 117.216C9.76 117.792 9.264 118.528 8.88 119.424C8.528 120.288 8.352 121.28 8.352 122.4C8.352 123.52 8.528 124.528 8.88 125.424C9.264 126.288 9.76 127.024 10.368 127.632C10.976 128.208 11.648 128.656 12.384 128.976C13.152 129.264 13.904 129.408 14.64 129.408C15.856 129.408 16.96 129.136 17.952 128.592C18.944 128.016 19.744 127.216 20.352 126.192C20.96 125.136 21.264 123.872 21.264 122.4ZM36.6668 111.36V133.44H31.5308V111.36H36.6668ZM43.2428 116.928C42.7628 116.544 42.3148 116.256 41.8988 116.064C41.4828 115.84 40.9548 115.728 40.3148 115.728C39.4508 115.728 38.7468 115.952 38.2028 116.4C37.6908 116.816 37.3068 117.424 37.0508 118.224C36.7948 119.024 36.6668 119.952 36.6668 121.008L34.9388 120C34.9388 118.24 35.2588 116.688 35.8988 115.344C36.5708 113.968 37.4188 112.88 38.4428 112.08C39.4988 111.28 40.5868 110.88 41.7068 110.88C42.5068 110.88 43.2588 111.008 43.9628 111.264C44.6668 111.52 45.2748 111.936 45.7868 112.512L43.2428 116.928ZM52.5604 126.576C52.5604 127.312 52.7364 127.936 53.0884 128.448C53.4404 128.96 53.9204 129.36 54.5284 129.648C55.1684 129.904 55.8884 130.032 56.6884 130.032C57.7124 130.032 58.6564 129.824 59.5204 129.408C60.3844 128.992 61.0724 128.384 61.5844 127.584C62.0964 126.784 62.3524 125.824 62.3524 124.704L63.1204 127.584C63.1204 128.992 62.7044 130.176 61.8724 131.136C61.0724 132.064 60.0484 132.768 58.8004 133.248C57.5844 133.696 56.3364 133.92 55.0564 133.92C53.6804 133.92 52.4004 133.648 51.2164 133.104C50.0324 132.56 49.0884 131.76 48.3844 130.704C47.6804 129.648 47.3284 128.368 47.3284 126.864C47.3284 125.424 47.6644 124.192 48.3364 123.168C49.0404 122.112 50.0324 121.296 51.3124 120.72C52.5924 120.144 54.1444 119.856 55.9684 119.856C57.4404 119.856 58.7044 120.016 59.7604 120.336C60.8484 120.656 61.7444 121.04 62.4484 121.488C63.1524 121.904 63.6484 122.288 63.9364 122.64V125.28C62.9444 124.576 61.8884 124.064 60.7684 123.744C59.6484 123.424 58.4644 123.264 57.2164 123.264C56.1284 123.264 55.2324 123.408 54.5284 123.696C53.8564 123.952 53.3604 124.32 53.0404 124.8C52.7204 125.28 52.5604 125.872 52.5604 126.576ZM50.9284 117.12L48.8164 113.472C49.8404 112.864 51.1364 112.272 52.7044 111.696C54.2724 111.12 56.0804 110.832 58.1284 110.832C59.9524 110.832 61.5524 111.104 62.9284 111.648C64.3364 112.192 65.4404 112.976 66.2404 114C67.0404 114.992 67.4404 116.224 67.4404 117.696V133.44H62.3524V118.704C62.3524 118.032 62.2404 117.472 62.0164 117.024C61.7924 116.544 61.4564 116.16 61.0084 115.872C60.5924 115.584 60.0964 115.376 59.5204 115.248C58.9444 115.12 58.3204 115.056 57.6484 115.056C56.5924 115.056 55.6164 115.184 54.7204 115.44C53.8244 115.696 53.0404 115.984 52.3684 116.304C51.7284 116.624 51.2484 116.896 50.9284 117.12ZM87.6919 120C87.6919 118.912 87.5479 118.016 87.2599 117.312C86.9719 116.576 86.5239 116.016 85.9159 115.632C85.3079 115.248 84.5399 115.056 83.6119 115.056C82.6519 115.056 81.7879 115.264 81.0199 115.68C80.2839 116.096 79.7079 116.672 79.2919 117.408C78.8759 118.144 78.6679 119.008 78.6679 120V133.44H73.4839V111.36H78.6679V114.768C79.3719 113.456 80.2839 112.48 81.4039 111.84C82.5239 111.2 83.8359 110.88 85.3399 110.88C87.0039 110.88 88.3959 111.232 89.5159 111.936C90.6679 112.608 91.5319 113.584 92.1079 114.864C92.7159 116.112 93.0199 117.632 93.0199 119.424V133.44H87.6919V120ZM116.248 95.9999H121.48V133.44H116.248V95.9999ZM97.9601 122.4C97.9601 119.968 98.4561 117.904 99.4481 116.208C100.44 114.48 101.752 113.168 103.384 112.272C105.016 111.344 106.792 110.88 108.712 110.88C110.088 110.88 111.352 111.152 112.504 111.696C113.656 112.208 114.648 112.96 115.48 113.952C116.312 114.944 116.952 116.16 117.4 117.6C117.88 119.008 118.12 120.608 118.12 122.4C118.12 124.192 117.88 125.808 117.4 127.248C116.952 128.656 116.312 129.856 115.48 130.848C114.648 131.84 113.656 132.608 112.504 133.152C111.352 133.664 110.088 133.92 108.712 133.92C106.792 133.92 105.016 133.472 103.384 132.576C101.752 131.648 100.44 130.32 99.4481 128.592C98.4561 126.864 97.9601 124.8 97.9601 122.4ZM103.336 122.4C103.336 123.872 103.64 125.136 104.248 126.192C104.856 127.216 105.656 128.016 106.648 128.592C107.672 129.136 108.776 129.408 109.96 129.408C110.696 129.408 111.432 129.264 112.168 128.976C112.936 128.656 113.624 128.208 114.232 127.632C114.84 127.024 115.32 126.288 115.672 125.424C116.056 124.528 116.248 123.52 116.248 122.4C116.248 121.28 116.056 120.288 115.672 119.424C115.32 118.528 114.84 117.792 114.232 117.216C113.624 116.608 112.936 116.16 112.168 115.872C111.432 115.552 110.696 115.392 109.96 115.392C108.776 115.392 107.672 115.68 106.648 116.256C105.656 116.8 104.856 117.6 104.248 118.656C103.64 119.68 103.336 120.928 103.336 122.4ZM127.667 102.576C127.667 101.68 127.987 100.928 128.627 100.32C129.267 99.7119 130.035 99.4079 130.931 99.4079C131.859 99.4079 132.627 99.7119 133.235 100.32C133.875 100.928 134.195 101.68 134.195 102.576C134.195 103.472 133.875 104.224 133.235 104.832C132.627 105.44 131.859 105.744 130.931 105.744C130.035 105.744 129.267 105.44 128.627 104.832C127.987 104.224 127.667 103.472 127.667 102.576ZM128.387 111.36H133.475V133.44H128.387V111.36ZM154.817 120C154.817 118.912 154.673 118.016 154.385 117.312C154.097 116.576 153.649 116.016 153.041 115.632C152.433 115.248 151.665 115.056 150.737 115.056C149.777 115.056 148.913 115.264 148.145 115.68C147.409 116.096 146.833 116.672 146.417 117.408C146.001 118.144 145.793 119.008 145.793 120V133.44H140.609V111.36H145.793V114.768C146.497 113.456 147.409 112.48 148.529 111.84C149.649 111.2 150.961 110.88 152.465 110.88C154.129 110.88 155.521 111.232 156.641 111.936C157.793 112.608 158.657 113.584 159.233 114.864C159.841 116.112 160.145 117.632 160.145 119.424V133.44H154.817V120ZM165.517 134.928H170.701C170.733 135.92 171.005 136.8 171.517 137.568C172.029 138.368 172.733 138.992 173.629 139.44C174.557 139.92 175.645 140.16 176.893 140.16C177.981 140.16 179.021 139.904 180.013 139.392C181.005 138.88 181.805 138.096 182.413 137.04C183.053 135.984 183.373 134.624 183.373 132.96V111.36H188.461V132.96C188.461 135.616 187.917 137.808 186.829 139.536C185.773 141.296 184.381 142.592 182.653 143.424C180.925 144.256 179.053 144.672 177.037 144.672C174.637 144.672 172.589 144.256 170.893 143.424C169.197 142.592 167.885 141.44 166.957 139.968C166.061 138.528 165.581 136.848 165.517 134.928ZM165.085 122.304C165.085 119.872 165.581 117.808 166.573 116.112C167.565 114.416 168.877 113.12 170.509 112.224C172.141 111.328 173.917 110.88 175.837 110.88C177.213 110.88 178.477 111.136 179.629 111.648C180.781 112.16 181.773 112.912 182.605 113.904C183.437 114.896 184.077 116.096 184.525 117.504C185.005 118.912 185.245 120.512 185.245 122.304C185.245 124.096 185.005 125.696 184.525 127.104C184.077 128.512 183.437 129.712 182.605 130.704C181.773 131.664 180.781 132.4 179.629 132.912C178.477 133.424 177.213 133.68 175.837 133.68C173.917 133.68 172.141 133.232 170.509 132.336C168.877 131.44 167.565 130.144 166.573 128.448C165.581 126.752 165.085 124.704 165.085 122.304ZM170.461 122.304C170.461 123.776 170.765 125.024 171.373 126.048C171.981 127.072 172.781 127.856 173.773 128.4C174.797 128.912 175.901 129.168 177.085 129.168C177.821 129.168 178.557 129.024 179.293 128.736C180.061 128.448 180.749 128.016 181.357 127.44C181.965 126.864 182.445 126.144 182.797 125.28C183.181 124.416 183.373 123.424 183.373 122.304C183.373 121.184 183.181 120.192 182.797 119.328C182.445 118.464 181.965 117.744 181.357 117.168C180.749 116.592 180.061 116.16 179.293 115.872C178.557 115.552 177.821 115.392 177.085 115.392C175.901 115.392 174.797 115.664 173.773 116.208C172.781 116.752 171.981 117.536 171.373 118.56C170.765 119.584 170.461 120.832 170.461 122.304ZM210.289 126.192C211.025 126.992 211.745 127.664 212.449 128.208C213.153 128.72 213.873 129.12 214.609 129.408C215.345 129.696 216.081 129.84 216.817 129.84C217.745 129.84 218.465 129.632 218.977 129.216C219.521 128.768 219.793 128.192 219.793 127.488C219.793 126.848 219.585 126.304 219.169 125.856C218.753 125.408 218.177 125.008 217.441 124.656C216.705 124.304 215.841 123.952 214.849 123.6C213.857 123.216 212.865 122.768 211.873 122.256C210.913 121.712 210.113 121.024 209.473 120.192C208.865 119.328 208.561 118.224 208.561 116.88C208.561 115.536 208.913 114.432 209.617 113.568C210.321 112.672 211.249 112 212.401 111.552C213.553 111.104 214.801 110.88 216.145 110.88C217.361 110.88 218.497 111.056 219.553 111.408C220.609 111.728 221.569 112.192 222.433 112.8C223.329 113.376 224.081 114.032 224.689 114.768L221.809 117.84C221.105 117.008 220.225 116.32 219.169 115.776C218.145 115.2 217.089 114.912 216.001 114.912C215.265 114.912 214.657 115.072 214.177 115.392C213.697 115.712 213.457 116.176 213.457 116.784C213.457 117.328 213.665 117.808 214.081 118.224C214.497 118.608 215.073 118.96 215.809 119.28C216.545 119.6 217.361 119.936 218.257 120.288C219.473 120.768 220.593 121.296 221.617 121.872C222.641 122.416 223.457 123.104 224.065 123.936C224.705 124.768 225.025 125.856 225.025 127.2C225.025 128.576 224.705 129.792 224.065 130.848C223.425 131.872 222.513 132.672 221.329 133.248C220.145 133.824 218.753 134.112 217.153 134.112C215.649 134.112 214.257 133.888 212.977 133.44C211.729 132.96 210.625 132.352 209.665 131.616C208.705 130.88 207.905 130.08 207.265 129.216L210.289 126.192ZM227.945 122.4C227.945 120.128 228.457 118.128 229.48 116.4C230.537 114.672 231.961 113.328 233.753 112.368C235.577 111.376 237.609 110.88 239.849 110.88C242.121 110.88 244.153 111.376 245.945 112.368C247.737 113.328 249.145 114.672 250.169 116.4C251.225 118.128 251.753 120.128 251.753 122.4C251.753 124.64 251.225 126.64 250.169 128.4C249.145 130.128 247.737 131.488 245.945 132.48C244.153 133.44 242.121 133.92 239.849 133.92C237.609 133.92 235.577 133.44 233.753 132.48C231.961 131.488 230.537 130.128 229.48 128.4C228.457 126.64 227.945 124.64 227.945 122.4ZM233.273 122.4C233.273 123.776 233.561 124.992 234.137 126.048C234.713 127.072 235.497 127.888 236.489 128.496C237.481 129.072 238.601 129.36 239.849 129.36C241.097 129.36 242.217 129.072 243.209 128.496C244.201 127.888 244.985 127.072 245.561 126.048C246.137 124.992 246.425 123.776 246.425 122.4C246.425 121.024 246.137 119.824 245.561 118.8C244.985 117.744 244.201 116.928 243.209 116.352C242.217 115.744 241.097 115.44 239.849 115.44C238.601 115.44 237.481 115.744 236.489 116.352C235.497 116.928 234.713 117.744 234.137 118.8C233.561 119.824 233.273 121.024 233.273 122.4ZM256.671 95.9999H261.855V133.44H256.671V95.9999ZM273.812 124.8C273.812 125.824 273.956 126.72 274.244 127.488C274.532 128.224 274.98 128.784 275.588 129.168C276.196 129.552 276.964 129.744 277.892 129.744C278.884 129.744 279.748 129.536 280.484 129.12C281.22 128.704 281.796 128.128 282.212 127.392C282.628 126.656 282.836 125.792 282.836 124.8V111.36H288.02V133.44H282.836V130.032C282.132 131.312 281.22 132.288 280.1 132.96C279.012 133.6 277.7 133.92 276.164 133.92C274.532 133.92 273.14 133.584 271.988 132.912C270.836 132.208 269.956 131.216 269.348 129.936C268.772 128.656 268.484 127.136 268.484 125.376V111.36H273.812V124.8ZM291.568 111.36H304.096V115.92H291.568V111.36ZM295.264 103.68H300.4V133.44H295.264V103.68ZM307.479 102.576C307.479 101.68 307.799 100.928 308.439 100.32C309.079 99.7119 309.847 99.4079 310.743 99.4079C311.671 99.4079 312.439 99.7119 313.047 100.32C313.687 100.928 314.007 101.68 314.007 102.576C314.007 103.472 313.687 104.224 313.047 104.832C312.439 105.44 311.671 105.744 310.743 105.744C309.847 105.744 309.079 105.44 308.439 104.832C307.799 104.224 307.479 103.472 307.479 102.576ZM308.199 111.36H313.287V133.44H308.199V111.36ZM318.741 122.4C318.741 120.128 319.253 118.128 320.277 116.4C321.333 114.672 322.757 113.328 324.549 112.368C326.373 111.376 328.405 110.88 330.645 110.88C332.917 110.88 334.949 111.376 336.741 112.368C338.533 113.328 339.941 114.672 340.965 116.4C342.021 118.128 342.549 120.128 342.549 122.4C342.549 124.64 342.021 126.64 340.965 128.4C339.941 130.128 338.533 131.488 336.741 132.48C334.949 133.44 332.917 133.92 330.645 133.92C328.405 133.92 326.373 133.44 324.549 132.48C322.757 131.488 321.333 130.128 320.277 128.4C319.253 126.64 318.741 124.64 318.741 122.4ZM324.069 122.4C324.069 123.776 324.357 124.992 324.933 126.048C325.509 127.072 326.293 127.888 327.285 128.496C328.277 129.072 329.397 129.36 330.645 129.36C331.893 129.36 333.013 129.072 334.005 128.496C334.997 127.888 335.781 127.072 336.357 126.048C336.933 124.992 337.221 123.776 337.221 122.4C337.221 121.024 336.933 119.824 336.357 118.8C335.781 117.744 334.997 116.928 334.005 116.352C333.013 115.744 331.893 115.44 330.645 115.44C329.397 115.44 328.277 115.744 327.285 116.352C326.293 116.928 325.509 117.744 324.933 118.8C324.357 119.824 324.069 121.024 324.069 122.4ZM361.676 120C361.676 118.912 361.532 118.016 361.244 117.312C360.956 116.576 360.508 116.016 359.9 115.632C359.292 115.248 358.524 115.056 357.596 115.056C356.636 115.056 355.772 115.264 355.004 115.68C354.268 116.096 353.692 116.672 353.276 117.408C352.86 118.144 352.652 119.008 352.652 120V133.44H347.468V111.36H352.652V114.768C353.356 113.456 354.268 112.48 355.388 111.84C356.508 111.2 357.82 110.88 359.324 110.88C360.988 110.88 362.38 111.232 363.5 111.936C364.652 112.608 365.516 113.584 366.092 114.864C366.7 116.112 367.004 117.632 367.004 119.424V133.44H361.676V120ZM374.633 126.192C375.369 126.992 376.089 127.664 376.793 128.208C377.497 128.72 378.217 129.12 378.953 129.408C379.689 129.696 380.425 129.84 381.161 129.84C382.089 129.84 382.809 129.632 383.321 129.216C383.865 128.768 384.137 128.192 384.137 127.488C384.137 126.848 383.929 126.304 383.513 125.856C383.097 125.408 382.521 125.008 381.785 124.656C381.049 124.304 380.185 123.952 379.193 123.6C378.201 123.216 377.209 122.768 376.217 122.256C375.257 121.712 374.457 121.024 373.817 120.192C373.209 119.328 372.905 118.224 372.905 116.88C372.905 115.536 373.257 114.432 373.961 113.568C374.665 112.672 375.593 112 376.745 111.552C377.897 111.104 379.145 110.88 380.489 110.88C381.705 110.88 382.841 111.056 383.897 111.408C384.953 111.728 385.913 112.192 386.777 112.8C387.673 113.376 388.425 114.032 389.033 114.768L386.153 117.84C385.449 117.008 384.569 116.32 383.513 115.776C382.489 115.2 381.433 114.912 380.345 114.912C379.609 114.912 379.001 115.072 378.521 115.392C378.041 115.712 377.801 116.176 377.801 116.784C377.801 117.328 378.009 117.808 378.425 118.224C378.841 118.608 379.417 118.96 380.153 119.28C380.889 119.6 381.705 119.936 382.601 120.288C383.817 120.768 384.937 121.296 385.961 121.872C386.985 122.416 387.801 123.104 388.409 123.936C389.049 124.768 389.369 125.856 389.369 127.2C389.369 128.576 389.049 129.792 388.409 130.848C387.769 131.872 386.857 132.672 385.673 133.248C384.489 133.824 383.097 134.112 381.497 134.112C379.993 134.112 378.601 133.888 377.321 133.44C376.073 132.96 374.969 132.352 374.009 131.616C373.049 130.88 372.249 130.08 371.609 129.216L374.633 126.192Z" fill="white"/>
</g>
<defs>
<filter id="filter0_d_0_8096" x="-3.85596" y="0" width="478.596" height="152.672" filterUnits="userSpaceOnUse" color-interpolation-filters="sRGB">
<feFlood flood-opacity="0" result="BackgroundImageFix"/>
<feColorMatrix in="SourceAlpha" type="matrix" values="0 0 0 0 0 0 0 0 0 0 0 0 0 0 0 0 0 0 127 0" result="hardAlpha"/>
<feOffset dy="4"/>
<feGaussianBlur stdDeviation="2"/>
<feComposite in2="hardAlpha" operator="out"/>
<feColorMatrix type="matrix" values="0 0 0 0 0 0 0 0 0 0 0 0 0 0 0 0 0 0 0.25 0"/>
<feBlend mode="normal" in2="BackgroundImageFix" result="effect1_dropShadow_0_8096"/>
<feBlend mode="normal" in="SourceGraphic" in2="effect1_dropShadow_0_8096" result="shape"/>
</filter>
</defs>
</svg>
